<?xml version="1.0" standalone="no"?>
<!DOCTYPE svg PUBLIC "-//W3C//DTD SVG 20010904//EN"
 "http://www.w3.org/TR/2001/REC-SVG-20010904/DTD/svg10.dtd">
<svg version="1.0" xmlns="http://www.w3.org/2000/svg"
 width="363.000000pt" height="343.000000pt" viewBox="0 0 363.000000 343.000000"
 preserveAspectRatio="xMidYMid meet">

<g transform="translate(0.000000,343.000000) scale(0.100000,-0.100000)"
fill="#000000" stroke="none">
<path d="M382 3268 c-8 -30 -12 -33 -44 -31 -47 3 -54 -16 -23 -62 80 -117 79
-149 -11 -325 -77 -149 -105 -227 -130 -355 -15 -73 -16 -98 -6 -163 25 -166
135 -319 321 -451 101 -71 138 -93 315 -185 319 -166 508 -377 624 -696 70
-192 92 -340 92 -637 l0 -233 226 0 c196 0 225 2 220 15 -3 8 -8 54 -12 102
-11 157 28 277 117 357 59 54 101 70 189 70 213 1 424 -186 546 -484 l22 -55
164 3 c197 3 288 11 288 24 0 6 -7 83 -16 172 -18 184 -16 521 5 570 l12 29
22 -20 c25 -23 78 -43 114 -43 l23 0 -30 53 c-51 85 -79 154 -90 220 -32 182
-100 366 -186 504 -56 90 -171 215 -262 284 -142 108 -384 206 -585 237 l-58
9 -31 -61 c-119 -237 -270 -363 -445 -374 -43 -2 -76 -2 -73 1 3 3 47 27 98
52 159 80 252 165 310 283 27 58 36 90 40 147 2 41 2 85 -2 99 -16 63 -151
120 -355 151 -103 15 -119 21 -182 61 -176 114 -348 157 -485 120 -106 -28
-179 -74 -305 -192 -42 -39 -97 -81 -121 -93 -160 -77 -252 79 -174 297 95
263 81 458 -41 592 -44 50 -69 52 -81 8z"/>
</g>
</svg>
